# https://github.com/mikedh/trimesh

o CHASSIS_MAIN
v -2.97500000 0.51000000 -0.81000000
v -2.97500000 0.51000000 0.81000000
v -2.97500000 0.73000000 -0.81000000
v -2.97500000 0.73000000 0.81000000
v 2.77500000 0.51000000 -0.81000000
v 2.77500000 0.51000000 0.81000000
v 2.77500000 0.73000000 -0.81000000
v 2.77500000 0.73000000 0.81000000
f 2 4 1
f 5 2 1
f 1 4 3
f 3 5 1
f 2 8 4
f 6 2 5
f 6 8 2
f 4 8 3
f 7 5 3
f 3 8 7
f 7 6 5
f 8 6 7

o FRONT_BUMPER
v -3.13000000 0.46000000 -0.94000000
v -3.13000000 0.46000000 0.94000000
v -3.13000000 0.70000000 -0.94000000
v -3.13000000 0.70000000 0.94000000
v -2.93000000 0.46000000 -0.94000000
v -2.93000000 0.46000000 0.94000000
v -2.93000000 0.70000000 -0.94000000
v -2.93000000 0.70000000 0.94000000
f 10 12 9
f 13 10 9
f 9 12 11
f 11 13 9
f 10 16 12
f 14 10 13
f 14 16 10
f 12 16 11
f 15 13 11
f 11 16 15
f 15 14 13
f 16 14 15

o REAR_BUMPER
v 2.98000000 0.44500000 -0.96000000
v 2.98000000 0.44500000 0.96000000
v 2.98000000 0.67500000 -0.96000000
v 2.98000000 0.67500000 0.96000000
v 3.16000000 0.44500000 -0.96000000
v 3.16000000 0.44500000 0.96000000
v 3.16000000 0.67500000 -0.96000000
v 3.16000000 0.67500000 0.96000000
f 18 20 17
f 21 18 17
f 17 20 19
f 19 21 17
f 18 24 20
f 22 18 21
f 22 24 18
f 20 24 19
f 23 21 19
f 19 24 23
f 23 22 21
f 24 22 23

o CARGO_BODY
v -1.05000000 0.82000000 -1.02500000
v -1.05000000 0.82000000 1.02500000
v -1.05000000 3.08000000 -1.02500000
v -1.05000000 3.08000000 1.02500000
v 2.98000000 0.82000000 -1.02500000
v 2.98000000 0.82000000 1.02500000
v 2.98000000 3.08000000 -1.02500000
v 2.98000000 3.08000000 1.02500000
f 26 28 25
f 29 26 25
f 25 28 27
f 27 29 25
f 26 32 28
f 30 26 29
f 30 32 26
f 28 32 27
f 31 29 27
f 27 32 31
f 31 30 29
f 32 30 31

o CARGO_ROOF_CAP
v -1.09000000 3.08000000 -1.06500000
v -1.09000000 3.08000000 1.06500000
v -1.09000000 3.17000000 -1.06500000
v -1.09000000 3.17000000 1.06500000
v 3.02000000 3.08000000 -1.06500000
v 3.02000000 3.08000000 1.06500000
v 3.02000000 3.17000000 -1.06500000
v 3.02000000 3.17000000 1.06500000
f 34 36 33
f 37 34 33
f 33 36 35
f 35 37 33
f 34 40 36
f 38 34 37
f 38 40 34
f 36 40 35
f 39 37 35
f 35 40 39
f 39 38 37
f 40 38 39

o CARGO_LOWER_RAIL
v -1.09000000 0.82000000 -1.06500000
v -1.09000000 0.82000000 1.06500000
v -1.09000000 0.92000000 -1.06500000
v -1.09000000 0.92000000 1.06500000
v 3.02000000 0.82000000 -1.06500000
v 3.02000000 0.82000000 1.06500000
v 3.02000000 0.92000000 -1.06500000
v 3.02000000 0.92000000 1.06500000
f 42 44 41
f 45 42 41
f 41 44 43
f 43 45 41
f 42 48 44
f 46 42 45
f 46 48 42
f 44 48 43
f 47 45 43
f 43 48 47
f 47 46 45
f 48 46 47

o CAB_LOWER_BODY
v -3.02500000 0.59000000 -0.95000000
v -3.02500000 0.59000000 0.95000000
v -3.02500000 1.31000000 -0.95000000
v -3.02500000 1.31000000 0.95000000
v -1.07500000 0.59000000 -0.95000000
v -1.07500000 0.59000000 0.95000000
v -1.07500000 1.31000000 -0.95000000
v -1.07500000 1.31000000 0.95000000
f 50 52 49
f 53 50 49
f 49 52 51
f 51 53 49
f 50 56 52
f 54 50 53
f 54 56 50
f 52 56 51
f 55 53 51
f 51 56 55
f 55 54 53
f 56 54 55

o CAB_UPPER_SHELL
v -2.95000000 1.28000000 -0.93000000
v -1.18000000 1.28000000 -0.93000000
v -1.18000000 2.50000000 -0.93000000
v -2.75000000 2.50000000 -0.93000000
v -2.95000000 1.28000000 0.93000000
v -1.18000000 1.28000000 0.93000000
v -1.18000000 2.50000000 0.93000000
v -2.75000000 2.50000000 0.93000000
f 57 58 59
f 57 59 60
f 61 64 63
f 61 63 62
f 57 61 62
f 57 62 58
f 60 59 63
f 60 63 64
f 57 60 64
f 57 64 61
f 58 62 63
f 58 63 59

o CAB_FRONT_GRILLE
v -2.98350000 0.70000000 -0.52500000
v -2.98350000 0.70000000 0.52500000
v -2.98350000 1.20000000 -0.52500000
v -2.98350000 1.20000000 0.52500000
v -2.94850000 0.70000000 -0.52500000
v -2.94850000 0.70000000 0.52500000
v -2.94850000 1.20000000 -0.52500000
v -2.94850000 1.20000000 0.52500000
f 66 68 65
f 69 66 65
f 65 68 67
f 67 69 65
f 66 72 68
f 70 66 69
f 70 72 66
f 68 72 67
f 71 69 67
f 67 72 71
f 71 70 69
f 72 70 71

o CAB_FRONT_WINDSHIELD
v -2.77750000 1.72000000 -0.78000000
v -2.77750000 1.72000000 0.78000000
v -2.77750000 2.40000000 -0.78000000
v -2.77750000 2.40000000 0.78000000
v -2.75250000 1.72000000 -0.78000000
v -2.75250000 1.72000000 0.78000000
v -2.75250000 2.40000000 -0.78000000
v -2.75250000 2.40000000 0.78000000
f 74 76 73
f 77 74 73
f 73 76 75
f 75 77 73
f 74 80 76
f 78 74 77
f 78 80 74
f 76 80 75
f 79 77 75
f 75 80 79
f 79 78 77
f 80 78 79

o CAB_LEFT_WINDOW
v -2.52000000 1.75000000 0.93100000
v -2.52000000 1.75000000 0.95700000
v -2.52000000 2.33000000 0.93100000
v -2.52000000 2.33000000 0.95700000
v -1.80000000 1.75000000 0.93100000
v -1.80000000 1.75000000 0.95700000
v -1.80000000 2.33000000 0.93100000
v -1.80000000 2.33000000 0.95700000
f 82 84 81
f 85 82 81
f 81 84 83
f 83 85 81
f 82 88 84
f 86 82 85
f 86 88 82
f 84 88 83
f 87 85 83
f 83 88 87
f 87 86 85
f 88 86 87

o CAB_RIGHT_WINDOW
v -2.52000000 1.75000000 -0.95700000
v -2.52000000 1.75000000 -0.93100000
v -2.52000000 2.33000000 -0.95700000
v -2.52000000 2.33000000 -0.93100000
v -1.80000000 1.75000000 -0.95700000
v -1.80000000 1.75000000 -0.93100000
v -1.80000000 2.33000000 -0.95700000
v -1.80000000 2.33000000 -0.93100000
f 90 92 89
f 93 90 89
f 89 92 91
f 91 93 89
f 90 96 92
f 94 90 93
f 94 96 90
f 92 96 91
f 95 93 91
f 91 96 95
f 95 94 93
f 96 94 95

o CAB_LEFT_DOOR_PANEL
v -2.48000000 0.94000000 0.94200000
v -2.48000000 0.94000000 0.97000000
v -2.48000000 1.66000000 0.94200000
v -2.48000000 1.66000000 0.97000000
v -1.72000000 0.94000000 0.94200000
v -1.72000000 0.94000000 0.97000000
v -1.72000000 1.66000000 0.94200000
v -1.72000000 1.66000000 0.97000000
f 98 100 97
f 101 98 97
f 97 100 99
f 99 101 97
f 98 104 100
f 102 98 101
f 102 104 98
f 100 104 99
f 103 101 99
f 99 104 103
f 103 102 101
f 104 102 103

o CAB_RIGHT_DOOR_PANEL
v -2.48000000 0.94000000 -0.97000000
v -2.48000000 0.94000000 -0.94200000
v -2.48000000 1.66000000 -0.97000000
v -2.48000000 1.66000000 -0.94200000
v -1.72000000 0.94000000 -0.97000000
v -1.72000000 0.94000000 -0.94200000
v -1.72000000 1.66000000 -0.97000000
v -1.72000000 1.66000000 -0.94200000
f 106 108 105
f 109 106 105
f 105 108 107
f 107 109 105
f 106 112 108
f 110 106 109
f 110 112 106
f 108 112 107
f 111 109 107
f 107 112 111
f 111 110 109
f 112 110 111

o MIRROR_LEFT_ARM
v -2.80000000 2.00000000 0.94000000
v -2.80000000 2.00000000 1.14000000
v -2.80000000 2.04000000 0.94000000
v -2.80000000 2.04000000 1.14000000
v -2.64000000 2.00000000 0.94000000
v -2.64000000 2.00000000 1.14000000
v -2.64000000 2.04000000 0.94000000
v -2.64000000 2.04000000 1.14000000
f 114 116 113
f 117 114 113
f 113 116 115
f 115 117 113
f 114 120 116
f 118 114 117
f 118 120 114
f 116 120 115
f 119 117 115
f 115 120 119
f 119 118 117
f 120 118 119

o MIRROR_RIGHT_ARM
v -2.80000000 2.00000000 -1.14000000
v -2.80000000 2.00000000 -0.94000000
v -2.80000000 2.04000000 -1.14000000
v -2.80000000 2.04000000 -0.94000000
v -2.64000000 2.00000000 -1.14000000
v -2.64000000 2.00000000 -0.94000000
v -2.64000000 2.04000000 -1.14000000
v -2.64000000 2.04000000 -0.94000000
f 122 124 121
f 125 122 121
f 121 124 123
f 123 125 121
f 122 128 124
f 126 122 125
f 126 128 122
f 124 128 123
f 127 125 123
f 123 128 127
f 127 126 125
f 128 126 127

o MIRROR_LEFT
v -2.83000000 1.88500000 1.07000000
v -2.83000000 1.88500000 1.25000000
v -2.83000000 2.15500000 1.07000000
v -2.83000000 2.15500000 1.25000000
v -2.75000000 1.88500000 1.07000000
v -2.75000000 1.88500000 1.25000000
v -2.75000000 2.15500000 1.07000000
v -2.75000000 2.15500000 1.25000000
f 130 132 129
f 133 130 129
f 129 132 131
f 131 133 129
f 130 136 132
f 134 130 133
f 134 136 130
f 132 136 131
f 135 133 131
f 131 136 135
f 135 134 133
f 136 134 135

o MIRROR_RIGHT
v -2.83000000 1.88500000 -1.25000000
v -2.83000000 1.88500000 -1.07000000
v -2.83000000 2.15500000 -1.25000000
v -2.83000000 2.15500000 -1.07000000
v -2.75000000 1.88500000 -1.25000000
v -2.75000000 1.88500000 -1.07000000
v -2.75000000 2.15500000 -1.25000000
v -2.75000000 2.15500000 -1.07000000
f 138 140 137
f 141 138 137
f 137 140 139
f 139 141 137
f 138 144 140
f 142 138 141
f 142 144 138
f 140 144 139
f 143 141 139
f 139 144 143
f 143 142 141
f 144 142 143

o FRONT_HEADER_STRUCTURE
v -1.20000000 2.31000000 -0.94000000
v -1.20000000 2.31000000 0.94000000
v -1.20000000 3.03000000 -0.94000000
v -1.20000000 3.03000000 0.94000000
v -1.04000000 2.31000000 -0.94000000
v -1.04000000 2.31000000 0.94000000
v -1.04000000 3.03000000 -0.94000000
v -1.04000000 3.03000000 0.94000000
f 146 148 145
f 149 146 145
f 145 148 147
f 147 149 145
f 146 152 148
f 150 146 149
f 150 152 146
f 148 152 147
f 151 149 147
f 147 152 151
f 151 150 149
f 152 150 151

o LED_FRONT_HEADER
v -1.20500000 2.33000000 -0.84000000
v -1.20500000 2.33000000 0.84000000
v -1.20500000 2.97000000 0.84000000
v -1.20500000 2.97000000 -0.84000000
f 153 154 155
f 153 155 156

o HEADLIGHT_R
v -3.05500000 1.00000000 -0.82000000
v -3.05500000 1.00000000 -0.52000000
v -3.05500000 1.20000000 -0.82000000
v -3.05500000 1.20000000 -0.52000000
v -3.01500000 1.00000000 -0.82000000
v -3.01500000 1.00000000 -0.52000000
v -3.01500000 1.20000000 -0.82000000
v -3.01500000 1.20000000 -0.52000000
f 158 160 157
f 161 158 157
f 157 160 159
f 159 161 157
f 158 164 160
f 162 158 161
f 162 164 158
f 160 164 159
f 163 161 159
f 159 164 163
f 163 162 161
f 164 162 163

o INDICATOR_R
v -3.06250000 0.81500000 -0.76000000
v -3.06250000 0.81500000 -0.58000000
v -3.06250000 0.92500000 -0.76000000
v -3.06250000 0.92500000 -0.58000000
v -3.01750000 0.81500000 -0.76000000
v -3.01750000 0.81500000 -0.58000000
v -3.01750000 0.92500000 -0.76000000
v -3.01750000 0.92500000 -0.58000000
f 166 168 165
f 169 166 165
f 165 168 167
f 167 169 165
f 166 172 168
f 170 166 169
f 170 172 166
f 168 172 167
f 171 169 167
f 167 172 171
f 171 170 169
f 172 170 171

o HEADLIGHT_L
v -3.05500000 1.00000000 0.52000000
v -3.05500000 1.00000000 0.82000000
v -3.05500000 1.20000000 0.52000000
v -3.05500000 1.20000000 0.82000000
v -3.01500000 1.00000000 0.52000000
v -3.01500000 1.00000000 0.82000000
v -3.01500000 1.20000000 0.52000000
v -3.01500000 1.20000000 0.82000000
f 174 176 173
f 177 174 173
f 173 176 175
f 175 177 173
f 174 180 176
f 178 174 177
f 178 180 174
f 176 180 175
f 179 177 175
f 175 180 179
f 179 178 177
f 180 178 179

o INDICATOR_L
v -3.06250000 0.81500000 0.58000000
v -3.06250000 0.81500000 0.76000000
v -3.06250000 0.92500000 0.58000000
v -3.06250000 0.92500000 0.76000000
v -3.01750000 0.81500000 0.58000000
v -3.01750000 0.81500000 0.76000000
v -3.01750000 0.92500000 0.58000000
v -3.01750000 0.92500000 0.76000000
f 182 184 181
f 185 182 181
f 181 184 183
f 183 185 181
f 182 188 184
f 186 182 185
f 186 188 182
f 184 188 183
f 187 185 183
f 183 188 187
f 187 186 185
f 188 186 187

o WHEEL_FRONT_LEFT
v -2.08000000 0.47000000 0.92000000
v -1.65000000 0.47000000 0.92000000
v -1.65000000 0.47000000 1.15000000
v -2.08000000 0.47000000 1.15000000
v -1.65529401 0.53726682 0.92000000
v -1.65529401 0.53726682 1.15000000
v -1.67104570 0.60287731 0.92000000
v -1.67104570 0.60287731 1.15000000
v -1.69686719 0.66521591 0.92000000
v -1.69686719 0.66521591 1.15000000
v -1.73212269 0.72274766 0.92000000
v -1.73212269 0.72274766 1.15000000
v -1.77594408 0.77405592 0.92000000
v -1.77594408 0.77405592 1.15000000
v -1.82725234 0.81787731 0.92000000
v -1.82725234 0.81787731 1.15000000
v -1.88478409 0.85313281 0.92000000
v -1.88478409 0.85313281 1.15000000
v -1.94712269 0.87895430 0.92000000
v -1.94712269 0.87895430 1.15000000
v -2.01273318 0.89470599 0.92000000
v -2.01273318 0.89470599 1.15000000
v -2.08000000 0.90000000 0.92000000
v -2.08000000 0.90000000 1.15000000
v -2.14726682 0.89470599 0.92000000
v -2.14726682 0.89470599 1.15000000
v -2.21287731 0.87895430 0.92000000
v -2.21287731 0.87895430 1.15000000
v -2.27521591 0.85313281 0.92000000
v -2.27521591 0.85313281 1.15000000
v -2.33274766 0.81787731 0.92000000
v -2.33274766 0.81787731 1.15000000
v -2.38405592 0.77405592 0.92000000
v -2.38405592 0.77405592 1.15000000
v -2.42787731 0.72274766 0.92000000
v -2.42787731 0.72274766 1.15000000
v -2.46313281 0.66521591 0.92000000
v -2.46313281 0.66521591 1.15000000
v -2.48895430 0.60287731 0.92000000
v -2.48895430 0.60287731 1.15000000
v -2.50470599 0.53726682 0.92000000
v -2.50470599 0.53726682 1.15000000
v -2.51000000 0.47000000 0.92000000
v -2.51000000 0.47000000 1.15000000
v -2.50470599 0.40273318 0.92000000
v -2.50470599 0.40273318 1.15000000
v -2.48895430 0.33712269 0.92000000
v -2.48895430 0.33712269 1.15000000
v -2.46313281 0.27478409 0.92000000
v -2.46313281 0.27478409 1.15000000
v -2.42787731 0.21725234 0.92000000
v -2.42787731 0.21725234 1.15000000
v -2.38405592 0.16594408 0.92000000
v -2.38405592 0.16594408 1.15000000
v -2.33274766 0.12212269 0.92000000
v -2.33274766 0.12212269 1.15000000
v -2.27521591 0.08686719 0.92000000
v -2.27521591 0.08686719 1.15000000
v -2.21287731 0.06104570 0.92000000
v -2.21287731 0.06104570 1.15000000
v -2.14726682 0.04529401 0.92000000
v -2.14726682 0.04529401 1.15000000
v -2.08000000 0.04000000 0.92000000
v -2.08000000 0.04000000 1.15000000
v -2.01273318 0.04529401 0.92000000
v -2.01273318 0.04529401 1.15000000
v -1.94712269 0.06104570 0.92000000
v -1.94712269 0.06104570 1.15000000
v -1.88478409 0.08686719 0.92000000
v -1.88478409 0.08686719 1.15000000
v -1.82725234 0.12212269 0.92000000
v -1.82725234 0.12212269 1.15000000
v -1.77594408 0.16594408 0.92000000
v -1.77594408 0.16594408 1.15000000
v -1.73212269 0.21725234 0.92000000
v -1.73212269 0.21725234 1.15000000
v -1.69686719 0.27478409 0.92000000
v -1.69686719 0.27478409 1.15000000
v -1.67104570 0.33712269 0.92000000
v -1.67104570 0.33712269 1.15000000
v -1.65529401 0.40273318 0.92000000
v -1.65529401 0.40273318 1.15000000
f 190 189 193
f 190 193 191
f 191 193 194
f 191 194 192
f 193 189 195
f 193 195 194
f 194 195 196
f 194 196 192
f 195 189 197
f 195 197 196
f 196 197 198
f 196 198 192
f 197 189 199
f 197 199 198
f 198 199 200
f 198 200 192
f 199 189 201
f 199 201 200
f 200 201 202
f 200 202 192
f 201 189 203
f 201 203 202
f 202 203 204
f 202 204 192
f 203 189 205
f 203 205 204
f 204 205 206
f 204 206 192
f 205 189 207
f 205 207 206
f 206 207 208
f 206 208 192
f 207 189 209
f 207 209 208
f 208 209 210
f 208 210 192
f 209 189 211
f 209 211 210
f 210 211 212
f 210 212 192
f 211 189 213
f 211 213 212
f 212 213 214
f 212 214 192
f 213 189 215
f 213 215 214
f 214 215 216
f 214 216 192
f 215 189 217
f 215 217 216
f 216 217 218
f 216 218 192
f 217 189 219
f 217 219 218
f 218 219 220
f 218 220 192
f 219 189 221
f 219 221 220
f 220 221 222
f 220 222 192
f 221 189 223
f 221 223 222
f 222 223 224
f 222 224 192
f 223 189 225
f 223 225 224
f 224 225 226
f 224 226 192
f 225 189 227
f 225 227 226
f 226 227 228
f 226 228 192
f 227 189 229
f 227 229 228
f 228 229 230
f 228 230 192
f 229 189 231
f 229 231 230
f 230 231 232
f 230 232 192
f 231 189 233
f 231 233 232
f 232 233 234
f 232 234 192
f 233 189 235
f 233 235 234
f 234 235 236
f 234 236 192
f 235 189 237
f 235 237 236
f 236 237 238
f 236 238 192
f 237 189 239
f 237 239 238
f 238 239 240
f 238 240 192
f 239 189 241
f 239 241 240
f 240 241 242
f 240 242 192
f 241 189 243
f 241 243 242
f 242 243 244
f 242 244 192
f 243 189 245
f 243 245 244
f 244 245 246
f 244 246 192
f 245 189 247
f 245 247 246
f 246 247 248
f 246 248 192
f 247 189 249
f 247 249 248
f 248 249 250
f 248 250 192
f 249 189 251
f 249 251 250
f 250 251 252
f 250 252 192
f 251 189 253
f 251 253 252
f 252 253 254
f 252 254 192
f 253 189 255
f 253 255 254
f 254 255 256
f 254 256 192
f 255 189 257
f 255 257 256
f 256 257 258
f 256 258 192
f 257 189 259
f 257 259 258
f 258 259 260
f 258 260 192
f 259 189 261
f 259 261 260
f 260 261 262
f 260 262 192
f 261 189 263
f 261 263 262
f 262 263 264
f 262 264 192
f 263 189 265
f 263 265 264
f 264 265 266
f 264 266 192
f 265 189 267
f 265 267 266
f 266 267 268
f 266 268 192
f 267 189 269
f 267 269 268
f 268 269 270
f 268 270 192
f 269 189 190
f 269 190 270
f 270 190 191
f 270 191 192

o HUB_FRONT_LEFT
v -2.08000000 0.47000000 0.91250000
v -1.90000000 0.47000000 0.91250000
v -1.90000000 0.47000000 1.15750000
v -2.08000000 0.47000000 1.15750000
v -1.90345865 0.50511626 0.91250000
v -1.90345865 0.50511626 1.15750000
v -1.91370168 0.53888302 0.91250000
v -1.91370168 0.53888302 1.15750000
v -1.93033547 0.57000264 0.91250000
v -1.93033547 0.57000264 1.15750000
v -1.95272078 0.59727922 0.91250000
v -1.95272078 0.59727922 1.15750000
v -1.97999736 0.61966453 0.91250000
v -1.97999736 0.61966453 1.15750000
v -2.01111698 0.63629832 0.91250000
v -2.01111698 0.63629832 1.15750000
v -2.04488374 0.64654135 0.91250000
v -2.04488374 0.64654135 1.15750000
v -2.08000000 0.65000000 0.91250000
v -2.08000000 0.65000000 1.15750000
v -2.11511626 0.64654135 0.91250000
v -2.11511626 0.64654135 1.15750000
v -2.14888302 0.63629832 0.91250000
v -2.14888302 0.63629832 1.15750000
v -2.18000264 0.61966453 0.91250000
v -2.18000264 0.61966453 1.15750000
v -2.20727922 0.59727922 0.91250000
v -2.20727922 0.59727922 1.15750000
v -2.22966453 0.57000264 0.91250000
v -2.22966453 0.57000264 1.15750000
v -2.24629832 0.53888302 0.91250000
v -2.24629832 0.53888302 1.15750000
v -2.25654135 0.50511626 0.91250000
v -2.25654135 0.50511626 1.15750000
v -2.26000000 0.47000000 0.91250000
v -2.26000000 0.47000000 1.15750000
v -2.25654135 0.43488374 0.91250000
v -2.25654135 0.43488374 1.15750000
v -2.24629832 0.40111698 0.91250000
v -2.24629832 0.40111698 1.15750000
v -2.22966453 0.36999736 0.91250000
v -2.22966453 0.36999736 1.15750000
v -2.20727922 0.34272078 0.91250000
v -2.20727922 0.34272078 1.15750000
v -2.18000264 0.32033547 0.91250000
v -2.18000264 0.32033547 1.15750000
v -2.14888302 0.30370168 0.91250000
v -2.14888302 0.30370168 1.15750000
v -2.11511626 0.29345865 0.91250000
v -2.11511626 0.29345865 1.15750000
v -2.08000000 0.29000000 0.91250000
v -2.08000000 0.29000000 1.15750000
v -2.04488374 0.29345865 0.91250000
v -2.04488374 0.29345865 1.15750000
v -2.01111698 0.30370168 0.91250000
v -2.01111698 0.30370168 1.15750000
v -1.97999736 0.32033547 0.91250000
v -1.97999736 0.32033547 1.15750000
v -1.95272078 0.34272078 0.91250000
v -1.95272078 0.34272078 1.15750000
v -1.93033547 0.36999736 0.91250000
v -1.93033547 0.36999736 1.15750000
v -1.91370168 0.40111698 0.91250000
v -1.91370168 0.40111698 1.15750000
v -1.90345865 0.43488374 0.91250000
v -1.90345865 0.43488374 1.15750000
f 272 271 275
f 272 275 273
f 273 275 276
f 273 276 274
f 275 271 277
f 275 277 276
f 276 277 278
f 276 278 274
f 277 271 279
f 277 279 278
f 278 279 280
f 278 280 274
f 279 271 281
f 279 281 280
f 280 281 282
f 280 282 274
f 281 271 283
f 281 283 282
f 282 283 284
f 282 284 274
f 283 271 285
f 283 285 284
f 284 285 286
f 284 286 274
f 285 271 287
f 285 287 286
f 286 287 288
f 286 288 274
f 287 271 289
f 287 289 288
f 288 289 290
f 288 290 274
f 289 271 291
f 289 291 290
f 290 291 292
f 290 292 274
f 291 271 293
f 291 293 292
f 292 293 294
f 292 294 274
f 293 271 295
f 293 295 294
f 294 295 296
f 294 296 274
f 295 271 297
f 295 297 296
f 296 297 298
f 296 298 274
f 297 271 299
f 297 299 298
f 298 299 300
f 298 300 274
f 299 271 301
f 299 301 300
f 300 301 302
f 300 302 274
f 301 271 303
f 301 303 302
f 302 303 304
f 302 304 274
f 303 271 305
f 303 305 304
f 304 305 306
f 304 306 274
f 305 271 307
f 305 307 306
f 306 307 308
f 306 308 274
f 307 271 309
f 307 309 308
f 308 309 310
f 308 310 274
f 309 271 311
f 309 311 310
f 310 311 312
f 310 312 274
f 311 271 313
f 311 313 312
f 312 313 314
f 312 314 274
f 313 271 315
f 313 315 314
f 314 315 316
f 314 316 274
f 315 271 317
f 315 317 316
f 316 317 318
f 316 318 274
f 317 271 319
f 317 319 318
f 318 319 320
f 318 320 274
f 319 271 321
f 319 321 320
f 320 321 322
f 320 322 274
f 321 271 323
f 321 323 322
f 322 323 324
f 322 324 274
f 323 271 325
f 323 325 324
f 324 325 326
f 324 326 274
f 325 271 327
f 325 327 326
f 326 327 328
f 326 328 274
f 327 271 329
f 327 329 328
f 328 329 330
f 328 330 274
f 329 271 331
f 329 331 330
f 330 331 332
f 330 332 274
f 331 271 333
f 331 333 332
f 332 333 334
f 332 334 274
f 333 271 335
f 333 335 334
f 334 335 336
f 334 336 274
f 335 271 272
f 335 272 336
f 336 272 273
f 336 273 274

o WHEEL_FRONT_RIGHT
v -2.08000000 0.47000000 -1.15000000
v -1.65000000 0.47000000 -1.15000000
v -1.65000000 0.47000000 -0.92000000
v -2.08000000 0.47000000 -0.92000000
v -1.65529401 0.53726682 -1.15000000
v -1.65529401 0.53726682 -0.92000000
v -1.67104570 0.60287731 -1.15000000
v -1.67104570 0.60287731 -0.92000000
v -1.69686719 0.66521591 -1.15000000
v -1.69686719 0.66521591 -0.92000000
v -1.73212269 0.72274766 -1.15000000
v -1.73212269 0.72274766 -0.92000000
v -1.77594408 0.77405592 -1.15000000
v -1.77594408 0.77405592 -0.92000000
v -1.82725234 0.81787731 -1.15000000
v -1.82725234 0.81787731 -0.92000000
v -1.88478409 0.85313281 -1.15000000
v -1.88478409 0.85313281 -0.92000000
v -1.94712269 0.87895430 -1.15000000
v -1.94712269 0.87895430 -0.92000000
v -2.01273318 0.89470599 -1.15000000
v -2.01273318 0.89470599 -0.92000000
v -2.08000000 0.90000000 -1.15000000
v -2.08000000 0.90000000 -0.92000000
v -2.14726682 0.89470599 -1.15000000
v -2.14726682 0.89470599 -0.92000000
v -2.21287731 0.87895430 -1.15000000
v -2.21287731 0.87895430 -0.92000000
v -2.27521591 0.85313281 -1.15000000
v -2.27521591 0.85313281 -0.92000000
v -2.33274766 0.81787731 -1.15000000
v -2.33274766 0.81787731 -0.92000000
v -2.38405592 0.77405592 -1.15000000
v -2.38405592 0.77405592 -0.92000000
v -2.42787731 0.72274766 -1.15000000
v -2.42787731 0.72274766 -0.92000000
v -2.46313281 0.66521591 -1.15000000
v -2.46313281 0.66521591 -0.92000000
v -2.48895430 0.60287731 -1.15000000
v -2.48895430 0.60287731 -0.92000000
v -2.50470599 0.53726682 -1.15000000
v -2.50470599 0.53726682 -0.92000000
v -2.51000000 0.47000000 -1.15000000
v -2.51000000 0.47000000 -0.92000000
v -2.50470599 0.40273318 -1.15000000
v -2.50470599 0.40273318 -0.92000000
v -2.48895430 0.33712269 -1.15000000
v -2.48895430 0.33712269 -0.92000000
v -2.46313281 0.27478409 -1.15000000
v -2.46313281 0.27478409 -0.92000000
v -2.42787731 0.21725234 -1.15000000
v -2.42787731 0.21725234 -0.92000000
v -2.38405592 0.16594408 -1.15000000
v -2.38405592 0.16594408 -0.92000000
v -2.33274766 0.12212269 -1.15000000
v -2.33274766 0.12212269 -0.92000000
v -2.27521591 0.08686719 -1.15000000
v -2.27521591 0.08686719 -0.92000000
v -2.21287731 0.06104570 -1.15000000
v -2.21287731 0.06104570 -0.92000000
v -2.14726682 0.04529401 -1.15000000
v -2.14726682 0.04529401 -0.92000000
v -2.08000000 0.04000000 -1.15000000
v -2.08000000 0.04000000 -0.92000000
v -2.01273318 0.04529401 -1.15000000
v -2.01273318 0.04529401 -0.92000000
v -1.94712269 0.06104570 -1.15000000
v -1.94712269 0.06104570 -0.92000000
v -1.88478409 0.08686719 -1.15000000
v -1.88478409 0.08686719 -0.92000000
v -1.82725234 0.12212269 -1.15000000
v -1.82725234 0.12212269 -0.92000000
v -1.77594408 0.16594408 -1.15000000
v -1.77594408 0.16594408 -0.92000000
v -1.73212269 0.21725234 -1.15000000
v -1.73212269 0.21725234 -0.92000000
v -1.69686719 0.27478409 -1.15000000
v -1.69686719 0.27478409 -0.92000000
v -1.67104570 0.33712269 -1.15000000
v -1.67104570 0.33712269 -0.92000000
v -1.65529401 0.40273318 -1.15000000
v -1.65529401 0.40273318 -0.92000000
f 338 337 341
f 338 341 339
f 339 341 342
f 339 342 340
f 341 337 343
f 341 343 342
f 342 343 344
f 342 344 340
f 343 337 345
f 343 345 344
f 344 345 346
f 344 346 340
f 345 337 347
f 345 347 346
f 346 347 348
f 346 348 340
f 347 337 349
f 347 349 348
f 348 349 350
f 348 350 340
f 349 337 351
f 349 351 350
f 350 351 352
f 350 352 340
f 351 337 353
f 351 353 352
f 352 353 354
f 352 354 340
f 353 337 355
f 353 355 354
f 354 355 356
f 354 356 340
f 355 337 357
f 355 357 356
f 356 357 358
f 356 358 340
f 357 337 359
f 357 359 358
f 358 359 360
f 358 360 340
f 359 337 361
f 359 361 360
f 360 361 362
f 360 362 340
f 361 337 363
f 361 363 362
f 362 363 364
f 362 364 340
f 363 337 365
f 363 365 364
f 364 365 366
f 364 366 340
f 365 337 367
f 365 367 366
f 366 367 368
f 366 368 340
f 367 337 369
f 367 369 368
f 368 369 370
f 368 370 340
f 369 337 371
f 369 371 370
f 370 371 372
f 370 372 340
f 371 337 373
f 371 373 372
f 372 373 374
f 372 374 340
f 373 337 375
f 373 375 374
f 374 375 376
f 374 376 340
f 375 337 377
f 375 377 376
f 376 377 378
f 376 378 340
f 377 337 379
f 377 379 378
f 378 379 380
f 378 380 340
f 379 337 381
f 379 381 380
f 380 381 382
f 380 382 340
f 381 337 383
f 381 383 382
f 382 383 384
f 382 384 340
f 383 337 385
f 383 385 384
f 384 385 386
f 384 386 340
f 385 337 387
f 385 387 386
f 386 387 388
f 386 388 340
f 387 337 389
f 387 389 388
f 388 389 390
f 388 390 340
f 389 337 391
f 389 391 390
f 390 391 392
f 390 392 340
f 391 337 393
f 391 393 392
f 392 393 394
f 392 394 340
f 393 337 395
f 393 395 394
f 394 395 396
f 394 396 340
f 395 337 397
f 395 397 396
f 396 397 398
f 396 398 340
f 397 337 399
f 397 399 398
f 398 399 400
f 398 400 340
f 399 337 401
f 399 401 400
f 400 401 402
f 400 402 340
f 401 337 403
f 401 403 402
f 402 403 404
f 402 404 340
f 403 337 405
f 403 405 404
f 404 405 406
f 404 406 340
f 405 337 407
f 405 407 406
f 406 407 408
f 406 408 340
f 407 337 409
f 407 409 408
f 408 409 410
f 408 410 340
f 409 337 411
f 409 411 410
f 410 411 412
f 410 412 340
f 411 337 413
f 411 413 412
f 412 413 414
f 412 414 340
f 413 337 415
f 413 415 414
f 414 415 416
f 414 416 340
f 415 337 417
f 415 417 416
f 416 417 418
f 416 418 340
f 417 337 338
f 417 338 418
f 418 338 339
f 418 339 340

o HUB_FRONT_RIGHT
v -2.08000000 0.47000000 -1.15750000
v -1.90000000 0.47000000 -1.15750000
v -1.90000000 0.47000000 -0.91250000
v -2.08000000 0.47000000 -0.91250000
v -1.90345865 0.50511626 -1.15750000
v -1.90345865 0.50511626 -0.91250000
v -1.91370168 0.53888302 -1.15750000
v -1.91370168 0.53888302 -0.91250000
v -1.93033547 0.57000264 -1.15750000
v -1.93033547 0.57000264 -0.91250000
v -1.95272078 0.59727922 -1.15750000
v -1.95272078 0.59727922 -0.91250000
v -1.97999736 0.61966453 -1.15750000
v -1.97999736 0.61966453 -0.91250000
v -2.01111698 0.63629832 -1.15750000
v -2.01111698 0.63629832 -0.91250000
v -2.04488374 0.64654135 -1.15750000
v -2.04488374 0.64654135 -0.91250000
v -2.08000000 0.65000000 -1.15750000
v -2.08000000 0.65000000 -0.91250000
v -2.11511626 0.64654135 -1.15750000
v -2.11511626 0.64654135 -0.91250000
v -2.14888302 0.63629832 -1.15750000
v -2.14888302 0.63629832 -0.91250000
v -2.18000264 0.61966453 -1.15750000
v -2.18000264 0.61966453 -0.91250000
v -2.20727922 0.59727922 -1.15750000
v -2.20727922 0.59727922 -0.91250000
v -2.22966453 0.57000264 -1.15750000
v -2.22966453 0.57000264 -0.91250000
v -2.24629832 0.53888302 -1.15750000
v -2.24629832 0.53888302 -0.91250000
v -2.25654135 0.50511626 -1.15750000
v -2.25654135 0.50511626 -0.91250000
v -2.26000000 0.47000000 -1.15750000
v -2.26000000 0.47000000 -0.91250000
v -2.25654135 0.43488374 -1.15750000
v -2.25654135 0.43488374 -0.91250000
v -2.24629832 0.40111698 -1.15750000
v -2.24629832 0.40111698 -0.91250000
v -2.22966453 0.36999736 -1.15750000
v -2.22966453 0.36999736 -0.91250000
v -2.20727922 0.34272078 -1.15750000
v -2.20727922 0.34272078 -0.91250000
v -2.18000264 0.32033547 -1.15750000
v -2.18000264 0.32033547 -0.91250000
v -2.14888302 0.30370168 -1.15750000
v -2.14888302 0.30370168 -0.91250000
v -2.11511626 0.29345865 -1.15750000
v -2.11511626 0.29345865 -0.91250000
v -2.08000000 0.29000000 -1.15750000
v -2.08000000 0.29000000 -0.91250000
v -2.04488374 0.29345865 -1.15750000
v -2.04488374 0.29345865 -0.91250000
v -2.01111698 0.30370168 -1.15750000
v -2.01111698 0.30370168 -0.91250000
v -1.97999736 0.32033547 -1.15750000
v -1.97999736 0.32033547 -0.91250000
v -1.95272078 0.34272078 -1.15750000
v -1.95272078 0.34272078 -0.91250000
v -1.93033547 0.36999736 -1.15750000
v -1.93033547 0.36999736 -0.91250000
v -1.91370168 0.40111698 -1.15750000
v -1.91370168 0.40111698 -0.91250000
v -1.90345865 0.43488374 -1.15750000
v -1.90345865 0.43488374 -0.91250000
f 420 419 423
f 420 423 421
f 421 423 424
f 421 424 422
f 423 419 425
f 423 425 424
f 424 425 426
f 424 426 422
f 425 419 427
f 425 427 426
f 426 427 428
f 426 428 422
f 427 419 429
f 427 429 428
f 428 429 430
f 428 430 422
f 429 419 431
f 429 431 430
f 430 431 432
f 430 432 422
f 431 419 433
f 431 433 432
f 432 433 434
f 432 434 422
f 433 419 435
f 433 435 434
f 434 435 436
f 434 436 422
f 435 419 437
f 435 437 436
f 436 437 438
f 436 438 422
f 437 419 439
f 437 439 438
f 438 439 440
f 438 440 422
f 439 419 441
f 439 441 440
f 440 441 442
f 440 442 422
f 441 419 443
f 441 443 442
f 442 443 444
f 442 444 422
f 443 419 445
f 443 445 444
f 444 445 446
f 444 446 422
f 445 419 447
f 445 447 446
f 446 447 448
f 446 448 422
f 447 419 449
f 447 449 448
f 448 449 450
f 448 450 422
f 449 419 451
f 449 451 450
f 450 451 452
f 450 452 422
f 451 419 453
f 451 453 452
f 452 453 454
f 452 454 422
f 453 419 455
f 453 455 454
f 454 455 456
f 454 456 422
f 455 419 457
f 455 457 456
f 456 457 458
f 456 458 422
f 457 419 459
f 457 459 458
f 458 459 460
f 458 460 422
f 459 419 461
f 459 461 460
f 460 461 462
f 460 462 422
f 461 419 463
f 461 463 462
f 462 463 464
f 462 464 422
f 463 419 465
f 463 465 464
f 464 465 466
f 464 466 422
f 465 419 467
f 465 467 466
f 466 467 468
f 466 468 422
f 467 419 469
f 467 469 468
f 468 469 470
f 468 470 422
f 469 419 471
f 469 471 470
f 470 471 472
f 470 472 422
f 471 419 473
f 471 473 472
f 472 473 474
f 472 474 422
f 473 419 475
f 473 475 474
f 474 475 476
f 474 476 422
f 475 419 477
f 475 477 476
f 476 477 478
f 476 478 422
f 477 419 479
f 477 479 478
f 478 479 480
f 478 480 422
f 479 419 481
f 479 481 480
f 480 481 482
f 480 482 422
f 481 419 483
f 481 483 482
f 482 483 484
f 482 484 422
f 483 419 420
f 483 420 484
f 484 420 421
f 484 421 422

o WHEEL_REAR_LEFT
v 1.92000000 0.47000000 0.92000000
v 2.35000000 0.47000000 0.92000000
v 2.35000000 0.47000000 1.15000000
v 1.92000000 0.47000000 1.15000000
v 2.34470599 0.53726682 0.92000000
v 2.34470599 0.53726682 1.15000000
v 2.32895430 0.60287731 0.92000000
v 2.32895430 0.60287731 1.15000000
v 2.30313281 0.66521591 0.92000000
v 2.30313281 0.66521591 1.15000000
v 2.26787731 0.72274766 0.92000000
v 2.26787731 0.72274766 1.15000000
v 2.22405592 0.77405592 0.92000000
v 2.22405592 0.77405592 1.15000000
v 2.17274766 0.81787731 0.92000000
v 2.17274766 0.81787731 1.15000000
v 2.11521591 0.85313281 0.92000000
v 2.11521591 0.85313281 1.15000000
v 2.05287731 0.87895430 0.92000000
v 2.05287731 0.87895430 1.15000000
v 1.98726682 0.89470599 0.92000000
v 1.98726682 0.89470599 1.15000000
v 1.92000000 0.90000000 0.92000000
v 1.92000000 0.90000000 1.15000000
v 1.85273318 0.89470599 0.92000000
v 1.85273318 0.89470599 1.15000000
v 1.78712269 0.87895430 0.92000000
v 1.78712269 0.87895430 1.15000000
v 1.72478409 0.85313281 0.92000000
v 1.72478409 0.85313281 1.15000000
v 1.66725234 0.81787731 0.92000000
v 1.66725234 0.81787731 1.15000000
v 1.61594408 0.77405592 0.92000000
v 1.61594408 0.77405592 1.15000000
v 1.57212269 0.72274766 0.92000000
v 1.57212269 0.72274766 1.15000000
v 1.53686719 0.66521591 0.92000000
v 1.53686719 0.66521591 1.15000000
v 1.51104570 0.60287731 0.92000000
v 1.51104570 0.60287731 1.15000000
v 1.49529401 0.53726682 0.92000000
v 1.49529401 0.53726682 1.15000000
v 1.49000000 0.47000000 0.92000000
v 1.49000000 0.47000000 1.15000000
v 1.49529401 0.40273318 0.92000000
v 1.49529401 0.40273318 1.15000000
v 1.51104570 0.33712269 0.92000000
v 1.51104570 0.33712269 1.15000000
v 1.53686719 0.27478409 0.92000000
v 1.53686719 0.27478409 1.15000000
v 1.57212269 0.21725234 0.92000000
v 1.57212269 0.21725234 1.15000000
v 1.61594408 0.16594408 0.92000000
v 1.61594408 0.16594408 1.15000000
v 1.66725234 0.12212269 0.92000000
v 1.66725234 0.12212269 1.15000000
v 1.72478409 0.08686719 0.92000000
v 1.72478409 0.08686719 1.15000000
v 1.78712269 0.06104570 0.92000000
v 1.78712269 0.06104570 1.15000000
v 1.85273318 0.04529401 0.92000000
v 1.85273318 0.04529401 1.15000000
v 1.92000000 0.04000000 0.92000000
v 1.92000000 0.04000000 1.15000000
v 1.98726682 0.04529401 0.92000000
v 1.98726682 0.04529401 1.15000000
v 2.05287731 0.06104570 0.92000000
v 2.05287731 0.06104570 1.15000000
v 2.11521591 0.08686719 0.92000000
v 2.11521591 0.08686719 1.15000000
v 2.17274766 0.12212269 0.92000000
v 2.17274766 0.12212269 1.15000000
v 2.22405592 0.16594408 0.92000000
v 2.22405592 0.16594408 1.15000000
v 2.26787731 0.21725234 0.92000000
v 2.26787731 0.21725234 1.15000000
v 2.30313281 0.27478409 0.92000000
v 2.30313281 0.27478409 1.15000000
v 2.32895430 0.33712269 0.92000000
v 2.32895430 0.33712269 1.15000000
v 2.34470599 0.40273318 0.92000000
v 2.34470599 0.40273318 1.15000000
f 486 485 489
f 486 489 487
f 487 489 490
f 487 490 488
f 489 485 491
f 489 491 490
f 490 491 492
f 490 492 488
f 491 485 493
f 491 493 492
f 492 493 494
f 492 494 488
f 493 485 495
f 493 495 494
f 494 495 496
f 494 496 488
f 495 485 497
f 495 497 496
f 496 497 498
f 496 498 488
f 497 485 499
f 497 499 498
f 498 499 500
f 498 500 488
f 499 485 501
f 499 501 500
f 500 501 502
f 500 502 488
f 501 485 503
f 501 503 502
f 502 503 504
f 502 504 488
f 503 485 505
f 503 505 504
f 504 505 506
f 504 506 488
f 505 485 507
f 505 507 506
f 506 507 508
f 506 508 488
f 507 485 509
f 507 509 508
f 508 509 510
f 508 510 488
f 509 485 511
f 509 511 510
f 510 511 512
f 510 512 488
f 511 485 513
f 511 513 512
f 512 513 514
f 512 514 488
f 513 485 515
f 513 515 514
f 514 515 516
f 514 516 488
f 515 485 517
f 515 517 516
f 516 517 518
f 516 518 488
f 517 485 519
f 517 519 518
f 518 519 520
f 518 520 488
f 519 485 521
f 519 521 520
f 520 521 522
f 520 522 488
f 521 485 523
f 521 523 522
f 522 523 524
f 522 524 488
f 523 485 525
f 523 525 524
f 524 525 526
f 524 526 488
f 525 485 527
f 525 527 526
f 526 527 528
f 526 528 488
f 527 485 529
f 527 529 528
f 528 529 530
f 528 530 488
f 529 485 531
f 529 531 530
f 530 531 532
f 530 532 488
f 531 485 533
f 531 533 532
f 532 533 534
f 532 534 488
f 533 485 535
f 533 535 534
f 534 535 536
f 534 536 488
f 535 485 537
f 535 537 536
f 536 537 538
f 536 538 488
f 537 485 539
f 537 539 538
f 538 539 540
f 538 540 488
f 539 485 541
f 539 541 540
f 540 541 542
f 540 542 488
f 541 485 543
f 541 543 542
f 542 543 544
f 542 544 488
f 543 485 545
f 543 545 544
f 544 545 546
f 544 546 488
f 545 485 547
f 545 547 546
f 546 547 548
f 546 548 488
f 547 485 549
f 547 549 548
f 548 549 550
f 548 550 488
f 549 485 551
f 549 551 550
f 550 551 552
f 550 552 488
f 551 485 553
f 551 553 552
f 552 553 554
f 552 554 488
f 553 485 555
f 553 555 554
f 554 555 556
f 554 556 488
f 555 485 557
f 555 557 556
f 556 557 558
f 556 558 488
f 557 485 559
f 557 559 558
f 558 559 560
f 558 560 488
f 559 485 561
f 559 561 560
f 560 561 562
f 560 562 488
f 561 485 563
f 561 563 562
f 562 563 564
f 562 564 488
f 563 485 565
f 563 565 564
f 564 565 566
f 564 566 488
f 565 485 486
f 565 486 566
f 566 486 487
f 566 487 488

o HUB_REAR_LEFT
v 1.92000000 0.47000000 0.91250000
v 2.10000000 0.47000000 0.91250000
v 2.10000000 0.47000000 1.15750000
v 1.92000000 0.47000000 1.15750000
v 2.09654135 0.50511626 0.91250000
v 2.09654135 0.50511626 1.15750000
v 2.08629832 0.53888302 0.91250000
v 2.08629832 0.53888302 1.15750000
v 2.06966453 0.57000264 0.91250000
v 2.06966453 0.57000264 1.15750000
v 2.04727922 0.59727922 0.91250000
v 2.04727922 0.59727922 1.15750000
v 2.02000264 0.61966453 0.91250000
v 2.02000264 0.61966453 1.15750000
v 1.98888302 0.63629832 0.91250000
v 1.98888302 0.63629832 1.15750000
v 1.95511626 0.64654135 0.91250000
v 1.95511626 0.64654135 1.15750000
v 1.92000000 0.65000000 0.91250000
v 1.92000000 0.65000000 1.15750000
v 1.88488374 0.64654135 0.91250000
v 1.88488374 0.64654135 1.15750000
v 1.85111698 0.63629832 0.91250000
v 1.85111698 0.63629832 1.15750000
v 1.81999736 0.61966453 0.91250000
v 1.81999736 0.61966453 1.15750000
v 1.79272078 0.59727922 0.91250000
v 1.79272078 0.59727922 1.15750000
v 1.77033547 0.57000264 0.91250000
v 1.77033547 0.57000264 1.15750000
v 1.75370168 0.53888302 0.91250000
v 1.75370168 0.53888302 1.15750000
v 1.74345865 0.50511626 0.91250000
v 1.74345865 0.50511626 1.15750000
v 1.74000000 0.47000000 0.91250000
v 1.74000000 0.47000000 1.15750000
v 1.74345865 0.43488374 0.91250000
v 1.74345865 0.43488374 1.15750000
v 1.75370168 0.40111698 0.91250000
v 1.75370168 0.40111698 1.15750000
v 1.77033547 0.36999736 0.91250000
v 1.77033547 0.36999736 1.15750000
v 1.79272078 0.34272078 0.91250000
v 1.79272078 0.34272078 1.15750000
v 1.81999736 0.32033547 0.91250000
v 1.81999736 0.32033547 1.15750000
v 1.85111698 0.30370168 0.91250000
v 1.85111698 0.30370168 1.15750000
v 1.88488374 0.29345865 0.91250000
v 1.88488374 0.29345865 1.15750000
v 1.92000000 0.29000000 0.91250000
v 1.92000000 0.29000000 1.15750000
v 1.95511626 0.29345865 0.91250000
v 1.95511626 0.29345865 1.15750000
v 1.98888302 0.30370168 0.91250000
v 1.98888302 0.30370168 1.15750000
v 2.02000264 0.32033547 0.91250000
v 2.02000264 0.32033547 1.15750000
v 2.04727922 0.34272078 0.91250000
v 2.04727922 0.34272078 1.15750000
v 2.06966453 0.36999736 0.91250000
v 2.06966453 0.36999736 1.15750000
v 2.08629832 0.40111698 0.91250000
v 2.08629832 0.40111698 1.15750000
v 2.09654135 0.43488374 0.91250000
v 2.09654135 0.43488374 1.15750000
f 568 567 571
f 568 571 569
f 569 571 572
f 569 572 570
f 571 567 573
f 571 573 572
f 572 573 574
f 572 574 570
f 573 567 575
f 573 575 574
f 574 575 576
f 574 576 570
f 575 567 577
f 575 577 576
f 576 577 578
f 576 578 570
f 577 567 579
f 577 579 578
f 578 579 580
f 578 580 570
f 579 567 581
f 579 581 580
f 580 581 582
f 580 582 570
f 581 567 583
f 581 583 582
f 582 583 584
f 582 584 570
f 583 567 585
f 583 585 584
f 584 585 586
f 584 586 570
f 585 567 587
f 585 587 586
f 586 587 588
f 586 588 570
f 587 567 589
f 587 589 588
f 588 589 590
f 588 590 570
f 589 567 591
f 589 591 590
f 590 591 592
f 590 592 570
f 591 567 593
f 591 593 592
f 592 593 594
f 592 594 570
f 593 567 595
f 593 595 594
f 594 595 596
f 594 596 570
f 595 567 597
f 595 597 596
f 596 597 598
f 596 598 570
f 597 567 599
f 597 599 598
f 598 599 600
f 598 600 570
f 599 567 601
f 599 601 600
f 600 601 602
f 600 602 570
f 601 567 603
f 601 603 602
f 602 603 604
f 602 604 570
f 603 567 605
f 603 605 604
f 604 605 606
f 604 606 570
f 605 567 607
f 605 607 606
f 606 607 608
f 606 608 570
f 607 567 609
f 607 609 608
f 608 609 610
f 608 610 570
f 609 567 611
f 609 611 610
f 610 611 612
f 610 612 570
f 611 567 613
f 611 613 612
f 612 613 614
f 612 614 570
f 613 567 615
f 613 615 614
f 614 615 616
f 614 616 570
f 615 567 617
f 615 617 616
f 616 617 618
f 616 618 570
f 617 567 619
f 617 619 618
f 618 619 620
f 618 620 570
f 619 567 621
f 619 621 620
f 620 621 622
f 620 622 570
f 621 567 623
f 621 623 622
f 622 623 624
f 622 624 570
f 623 567 625
f 623 625 624
f 624 625 626
f 624 626 570
f 625 567 627
f 625 627 626
f 626 627 628
f 626 628 570
f 627 567 629
f 627 629 628
f 628 629 630
f 628 630 570
f 629 567 631
f 629 631 630
f 630 631 632
f 630 632 570
f 631 567 568
f 631 568 632
f 632 568 569
f 632 569 570

o WHEEL_REAR_RIGHT
v 1.92000000 0.47000000 -1.15000000
v 2.35000000 0.47000000 -1.15000000
v 2.35000000 0.47000000 -0.92000000
v 1.92000000 0.47000000 -0.92000000
v 2.34470599 0.53726682 -1.15000000
v 2.34470599 0.53726682 -0.92000000
v 2.32895430 0.60287731 -1.15000000
v 2.32895430 0.60287731 -0.92000000
v 2.30313281 0.66521591 -1.15000000
v 2.30313281 0.66521591 -0.92000000
v 2.26787731 0.72274766 -1.15000000
v 2.26787731 0.72274766 -0.92000000
v 2.22405592 0.77405592 -1.15000000
v 2.22405592 0.77405592 -0.92000000
v 2.17274766 0.81787731 -1.15000000
v 2.17274766 0.81787731 -0.92000000
v 2.11521591 0.85313281 -1.15000000
v 2.11521591 0.85313281 -0.92000000
v 2.05287731 0.87895430 -1.15000000
v 2.05287731 0.87895430 -0.92000000
v 1.98726682 0.89470599 -1.15000000
v 1.98726682 0.89470599 -0.92000000
v 1.92000000 0.90000000 -1.15000000
v 1.92000000 0.90000000 -0.92000000
v 1.85273318 0.89470599 -1.15000000
v 1.85273318 0.89470599 -0.92000000
v 1.78712269 0.87895430 -1.15000000
v 1.78712269 0.87895430 -0.92000000
v 1.72478409 0.85313281 -1.15000000
v 1.72478409 0.85313281 -0.92000000
v 1.66725234 0.81787731 -1.15000000
v 1.66725234 0.81787731 -0.92000000
v 1.61594408 0.77405592 -1.15000000
v 1.61594408 0.77405592 -0.92000000
v 1.57212269 0.72274766 -1.15000000
v 1.57212269 0.72274766 -0.92000000
v 1.53686719 0.66521591 -1.15000000
v 1.53686719 0.66521591 -0.92000000
v 1.51104570 0.60287731 -1.15000000
v 1.51104570 0.60287731 -0.92000000
v 1.49529401 0.53726682 -1.15000000
v 1.49529401 0.53726682 -0.92000000
v 1.49000000 0.47000000 -1.15000000
v 1.49000000 0.47000000 -0.92000000
v 1.49529401 0.40273318 -1.15000000
v 1.49529401 0.40273318 -0.92000000
v 1.51104570 0.33712269 -1.15000000
v 1.51104570 0.33712269 -0.92000000
v 1.53686719 0.27478409 -1.15000000
v 1.53686719 0.27478409 -0.92000000
v 1.57212269 0.21725234 -1.15000000
v 1.57212269 0.21725234 -0.92000000
v 1.61594408 0.16594408 -1.15000000
v 1.61594408 0.16594408 -0.92000000
v 1.66725234 0.12212269 -1.15000000
v 1.66725234 0.12212269 -0.92000000
v 1.72478409 0.08686719 -1.15000000
v 1.72478409 0.08686719 -0.92000000
v 1.78712269 0.06104570 -1.15000000
v 1.78712269 0.06104570 -0.92000000
v 1.85273318 0.04529401 -1.15000000
v 1.85273318 0.04529401 -0.92000000
v 1.92000000 0.04000000 -1.15000000
v 1.92000000 0.04000000 -0.92000000
v 1.98726682 0.04529401 -1.15000000
v 1.98726682 0.04529401 -0.92000000
v 2.05287731 0.06104570 -1.15000000
v 2.05287731 0.06104570 -0.92000000
v 2.11521591 0.08686719 -1.15000000
v 2.11521591 0.08686719 -0.92000000
v 2.17274766 0.12212269 -1.15000000
v 2.17274766 0.12212269 -0.92000000
v 2.22405592 0.16594408 -1.15000000
v 2.22405592 0.16594408 -0.92000000
v 2.26787731 0.21725234 -1.15000000
v 2.26787731 0.21725234 -0.92000000
v 2.30313281 0.27478409 -1.15000000
v 2.30313281 0.27478409 -0.92000000
v 2.32895430 0.33712269 -1.15000000
v 2.32895430 0.33712269 -0.92000000
v 2.34470599 0.40273318 -1.15000000
v 2.34470599 0.40273318 -0.92000000
f 634 633 637
f 634 637 635
f 635 637 638
f 635 638 636
f 637 633 639
f 637 639 638
f 638 639 640
f 638 640 636
f 639 633 641
f 639 641 640
f 640 641 642
f 640 642 636
f 641 633 643
f 641 643 642
f 642 643 644
f 642 644 636
f 643 633 645
f 643 645 644
f 644 645 646
f 644 646 636
f 645 633 647
f 645 647 646
f 646 647 648
f 646 648 636
f 647 633 649
f 647 649 648
f 648 649 650
f 648 650 636
f 649 633 651
f 649 651 650
f 650 651 652
f 650 652 636
f 651 633 653
f 651 653 652
f 652 653 654
f 652 654 636
f 653 633 655
f 653 655 654
f 654 655 656
f 654 656 636
f 655 633 657
f 655 657 656
f 656 657 658
f 656 658 636
f 657 633 659
f 657 659 658
f 658 659 660
f 658 660 636
f 659 633 661
f 659 661 660
f 660 661 662
f 660 662 636
f 661 633 663
f 661 663 662
f 662 663 664
f 662 664 636
f 663 633 665
f 663 665 664
f 664 665 666
f 664 666 636
f 665 633 667
f 665 667 666
f 666 667 668
f 666 668 636
f 667 633 669
f 667 669 668
f 668 669 670
f 668 670 636
f 669 633 671
f 669 671 670
f 670 671 672
f 670 672 636
f 671 633 673
f 671 673 672
f 672 673 674
f 672 674 636
f 673 633 675
f 673 675 674
f 674 675 676
f 674 676 636
f 675 633 677
f 675 677 676
f 676 677 678
f 676 678 636
f 677 633 679
f 677 679 678
f 678 679 680
f 678 680 636
f 679 633 681
f 679 681 680
f 680 681 682
f 680 682 636
f 681 633 683
f 681 683 682
f 682 683 684
f 682 684 636
f 683 633 685
f 683 685 684
f 684 685 686
f 684 686 636
f 685 633 687
f 685 687 686
f 686 687 688
f 686 688 636
f 687 633 689
f 687 689 688
f 688 689 690
f 688 690 636
f 689 633 691
f 689 691 690
f 690 691 692
f 690 692 636
f 691 633 693
f 691 693 692
f 692 693 694
f 692 694 636
f 693 633 695
f 693 695 694
f 694 695 696
f 694 696 636
f 695 633 697
f 695 697 696
f 696 697 698
f 696 698 636
f 697 633 699
f 697 699 698
f 698 699 700
f 698 700 636
f 699 633 701
f 699 701 700
f 700 701 702
f 700 702 636
f 701 633 703
f 701 703 702
f 702 703 704
f 702 704 636
f 703 633 705
f 703 705 704
f 704 705 706
f 704 706 636
f 705 633 707
f 705 707 706
f 706 707 708
f 706 708 636
f 707 633 709
f 707 709 708
f 708 709 710
f 708 710 636
f 709 633 711
f 709 711 710
f 710 711 712
f 710 712 636
f 711 633 713
f 711 713 712
f 712 713 714
f 712 714 636
f 713 633 634
f 713 634 714
f 714 634 635
f 714 635 636

o HUB_REAR_RIGHT
v 1.92000000 0.47000000 -1.15750000
v 2.10000000 0.47000000 -1.15750000
v 2.10000000 0.47000000 -0.91250000
v 1.92000000 0.47000000 -0.91250000
v 2.09654135 0.50511626 -1.15750000
v 2.09654135 0.50511626 -0.91250000
v 2.08629832 0.53888302 -1.15750000
v 2.08629832 0.53888302 -0.91250000
v 2.06966453 0.57000264 -1.15750000
v 2.06966453 0.57000264 -0.91250000
v 2.04727922 0.59727922 -1.15750000
v 2.04727922 0.59727922 -0.91250000
v 2.02000264 0.61966453 -1.15750000
v 2.02000264 0.61966453 -0.91250000
v 1.98888302 0.63629832 -1.15750000
v 1.98888302 0.63629832 -0.91250000
v 1.95511626 0.64654135 -1.15750000
v 1.95511626 0.64654135 -0.91250000
v 1.92000000 0.65000000 -1.15750000
v 1.92000000 0.65000000 -0.91250000
v 1.88488374 0.64654135 -1.15750000
v 1.88488374 0.64654135 -0.91250000
v 1.85111698 0.63629832 -1.15750000
v 1.85111698 0.63629832 -0.91250000
v 1.81999736 0.61966453 -1.15750000
v 1.81999736 0.61966453 -0.91250000
v 1.79272078 0.59727922 -1.15750000
v 1.79272078 0.59727922 -0.91250000
v 1.77033547 0.57000264 -1.15750000
v 1.77033547 0.57000264 -0.91250000
v 1.75370168 0.53888302 -1.15750000
v 1.75370168 0.53888302 -0.91250000
v 1.74345865 0.50511626 -1.15750000
v 1.74345865 0.50511626 -0.91250000
v 1.74000000 0.47000000 -1.15750000
v 1.74000000 0.47000000 -0.91250000
v 1.74345865 0.43488374 -1.15750000
v 1.74345865 0.43488374 -0.91250000
v 1.75370168 0.40111698 -1.15750000
v 1.75370168 0.40111698 -0.91250000
v 1.77033547 0.36999736 -1.15750000
v 1.77033547 0.36999736 -0.91250000
v 1.79272078 0.34272078 -1.15750000
v 1.79272078 0.34272078 -0.91250000
v 1.81999736 0.32033547 -1.15750000
v 1.81999736 0.32033547 -0.91250000
v 1.85111698 0.30370168 -1.15750000
v 1.85111698 0.30370168 -0.91250000
v 1.88488374 0.29345865 -1.15750000
v 1.88488374 0.29345865 -0.91250000
v 1.92000000 0.29000000 -1.15750000
v 1.92000000 0.29000000 -0.91250000
v 1.95511626 0.29345865 -1.15750000
v 1.95511626 0.29345865 -0.91250000
v 1.98888302 0.30370168 -1.15750000
v 1.98888302 0.30370168 -0.91250000
v 2.02000264 0.32033547 -1.15750000
v 2.02000264 0.32033547 -0.91250000
v 2.04727922 0.34272078 -1.15750000
v 2.04727922 0.34272078 -0.91250000
v 2.06966453 0.36999736 -1.15750000
v 2.06966453 0.36999736 -0.91250000
v 2.08629832 0.40111698 -1.15750000
v 2.08629832 0.40111698 -0.91250000
v 2.09654135 0.43488374 -1.15750000
v 2.09654135 0.43488374 -0.91250000
f 716 715 719
f 716 719 717
f 717 719 720
f 717 720 718
f 719 715 721
f 719 721 720
f 720 721 722
f 720 722 718
f 721 715 723
f 721 723 722
f 722 723 724
f 722 724 718
f 723 715 725
f 723 725 724
f 724 725 726
f 724 726 718
f 725 715 727
f 725 727 726
f 726 727 728
f 726 728 718
f 727 715 729
f 727 729 728
f 728 729 730
f 728 730 718
f 729 715 731
f 729 731 730
f 730 731 732
f 730 732 718
f 731 715 733
f 731 733 732
f 732 733 734
f 732 734 718
f 733 715 735
f 733 735 734
f 734 735 736
f 734 736 718
f 735 715 737
f 735 737 736
f 736 737 738
f 736 738 718
f 737 715 739
f 737 739 738
f 738 739 740
f 738 740 718
f 739 715 741
f 739 741 740
f 740 741 742
f 740 742 718
f 741 715 743
f 741 743 742
f 742 743 744
f 742 744 718
f 743 715 745
f 743 745 744
f 744 745 746
f 744 746 718
f 745 715 747
f 745 747 746
f 746 747 748
f 746 748 718
f 747 715 749
f 747 749 748
f 748 749 750
f 748 750 718
f 749 715 751
f 749 751 750
f 750 751 752
f 750 752 718
f 751 715 753
f 751 753 752
f 752 753 754
f 752 754 718
f 753 715 755
f 753 755 754
f 754 755 756
f 754 756 718
f 755 715 757
f 755 757 756
f 756 757 758
f 756 758 718
f 757 715 759
f 757 759 758
f 758 759 760
f 758 760 718
f 759 715 761
f 759 761 760
f 760 761 762
f 760 762 718
f 761 715 763
f 761 763 762
f 762 763 764
f 762 764 718
f 763 715 765
f 763 765 764
f 764 765 766
f 764 766 718
f 765 715 767
f 765 767 766
f 766 767 768
f 766 768 718
f 767 715 769
f 767 769 768
f 768 769 770
f 768 770 718
f 769 715 771
f 769 771 770
f 770 771 772
f 770 772 718
f 771 715 773
f 771 773 772
f 772 773 774
f 772 774 718
f 773 715 775
f 773 775 774
f 774 775 776
f 774 776 718
f 775 715 777
f 775 777 776
f 776 777 778
f 776 778 718
f 777 715 779
f 777 779 778
f 778 779 780
f 778 780 718
f 779 715 716
f 779 716 780
f 780 716 717
f 780 717 718

o FENDER_LEFT_-2.08
v -2.55500000 0.86000000 0.92000000
v -2.55500000 0.86000000 1.04000000
v -2.55500000 0.96000000 0.92000000
v -2.55500000 0.96000000 1.04000000
v -1.60500000 0.86000000 0.92000000
v -1.60500000 0.86000000 1.04000000
v -1.60500000 0.96000000 0.92000000
v -1.60500000 0.96000000 1.04000000
f 782 784 781
f 785 782 781
f 781 784 783
f 783 785 781
f 782 788 784
f 786 782 785
f 786 788 782
f 784 788 783
f 787 785 783
f 783 788 787
f 787 786 785
f 788 786 787

o FENDER_RIGHT_-2.08
v -2.55500000 0.86000000 -1.04000000
v -2.55500000 0.86000000 -0.92000000
v -2.55500000 0.96000000 -1.04000000
v -2.55500000 0.96000000 -0.92000000
v -1.60500000 0.86000000 -1.04000000
v -1.60500000 0.86000000 -0.92000000
v -1.60500000 0.96000000 -1.04000000
v -1.60500000 0.96000000 -0.92000000
f 790 792 789
f 793 790 789
f 789 792 791
f 791 793 789
f 790 796 792
f 794 790 793
f 794 796 790
f 792 796 791
f 795 793 791
f 791 796 795
f 795 794 793
f 796 794 795

o FENDER_LEFT_1.92
v 1.44500000 0.86000000 0.92000000
v 1.44500000 0.86000000 1.04000000
v 1.44500000 0.96000000 0.92000000
v 1.44500000 0.96000000 1.04000000
v 2.39500000 0.86000000 0.92000000
v 2.39500000 0.86000000 1.04000000
v 2.39500000 0.96000000 0.92000000
v 2.39500000 0.96000000 1.04000000
f 798 800 797
f 801 798 797
f 797 800 799
f 799 801 797
f 798 804 800
f 802 798 801
f 802 804 798
f 800 804 799
f 803 801 799
f 799 804 803
f 803 802 801
f 804 802 803

o FENDER_RIGHT_1.92
v 1.44500000 0.86000000 -1.04000000
v 1.44500000 0.86000000 -0.92000000
v 1.44500000 0.96000000 -1.04000000
v 1.44500000 0.96000000 -0.92000000
v 2.39500000 0.86000000 -1.04000000
v 2.39500000 0.86000000 -0.92000000
v 2.39500000 0.96000000 -1.04000000
v 2.39500000 0.96000000 -0.92000000
f 806 808 805
f 809 806 805
f 805 808 807
f 807 809 805
f 806 812 808
f 810 806 809
f 810 812 806
f 808 812 807
f 811 809 807
f 807 812 811
f 811 810 809
f 812 810 811

o LED_LEFT_MAIN
v -0.69600000 1.29000000 1.03900000
v 2.99400000 1.29000000 1.03900000
v 2.99400000 2.73000000 1.03900000
v -0.69600000 2.73000000 1.03900000
f 813 814 815
f 813 815 816

o LED_LEFT_REAR
v 2.99400000 1.29000000 1.03900000
v 2.99400000 1.29000000 -0.08100000
v 2.99400000 2.73000000 -0.08100000
v 2.99400000 2.73000000 1.03900000
f 817 818 819
f 817 819 820

o LED_RIGHT_MAIN
v 1.62000000 1.29000000 -1.03900000
v -0.90000000 1.29000000 -1.03900000
v -0.90000000 2.73000000 -1.03900000
v 1.62000000 2.73000000 -1.03900000
f 821 822 823
f 821 823 824

o RIGHT_REAR_SERVICE_PANEL
v 1.72000000 1.13500000 -1.05050000
v 1.72000000 1.13500000 -1.01550000
v 1.72000000 2.78500000 -1.05050000
v 1.72000000 2.78500000 -1.01550000
v 2.90000000 1.13500000 -1.05050000
v 2.90000000 1.13500000 -1.01550000
v 2.90000000 2.78500000 -1.05050000
v 2.90000000 2.78500000 -1.01550000
f 826 828 825
f 829 826 825
f 825 828 827
f 827 829 825
f 826 832 828
f 830 826 829
f 830 832 826
f 828 832 827
f 831 829 827
f 827 832 831
f 831 830 829
f 832 830 831

o RIGHT_SERVICE_VENT_1
v 1.93240000 1.58250000 -1.06800000
v 1.93240000 1.58250000 -1.05000000
v 1.93240000 1.61750000 -1.06800000
v 1.93240000 1.61750000 -1.05000000
v 2.68760000 1.58250000 -1.06800000
v 2.68760000 1.58250000 -1.05000000
v 2.68760000 1.61750000 -1.06800000
v 2.68760000 1.61750000 -1.05000000
f 834 836 833
f 837 834 833
f 833 836 835
f 835 837 833
f 834 840 836
f 838 834 837
f 838 840 834
f 836 840 835
f 839 837 835
f 835 840 839
f 839 838 837
f 840 838 839

o RIGHT_SERVICE_VENT_2
v 1.93240000 1.70250000 -1.06800000
v 1.93240000 1.70250000 -1.05000000
v 1.93240000 1.73750000 -1.06800000
v 1.93240000 1.73750000 -1.05000000
v 2.68760000 1.70250000 -1.06800000
v 2.68760000 1.70250000 -1.05000000
v 2.68760000 1.73750000 -1.06800000
v 2.68760000 1.73750000 -1.05000000
f 842 844 841
f 845 842 841
f 841 844 843
f 843 845 841
f 842 848 844
f 846 842 845
f 846 848 842
f 844 848 843
f 847 845 843
f 843 848 847
f 847 846 845
f 848 846 847

o RIGHT_SERVICE_VENT_3
v 1.93240000 1.82250000 -1.06800000
v 1.93240000 1.82250000 -1.05000000
v 1.93240000 1.85750000 -1.06800000
v 1.93240000 1.85750000 -1.05000000
v 2.68760000 1.82250000 -1.06800000
v 2.68760000 1.82250000 -1.05000000
v 2.68760000 1.85750000 -1.06800000
v 2.68760000 1.85750000 -1.05000000
f 850 852 849
f 853 850 849
f 849 852 851
f 851 853 849
f 850 856 852
f 854 850 853
f 854 856 850
f 852 856 851
f 855 853 851
f 851 856 855
f 855 854 853
f 856 854 855

o RIGHT_SERVICE_VENT_4
v 1.93240000 1.94250000 -1.06800000
v 1.93240000 1.94250000 -1.05000000
v 1.93240000 1.97750000 -1.06800000
v 1.93240000 1.97750000 -1.05000000
v 2.68760000 1.94250000 -1.06800000
v 2.68760000 1.94250000 -1.05000000
v 2.68760000 1.97750000 -1.06800000
v 2.68760000 1.97750000 -1.05000000
f 858 860 857
f 861 858 857
f 857 860 859
f 859 861 857
f 858 864 860
f 862 858 861
f 862 864 858
f 860 864 859
f 863 861 859
f 859 864 863
f 863 862 861
f 864 862 863

o RIGHT_SERVICE_VENT_5
v 1.93240000 2.06250000 -1.06800000
v 1.93240000 2.06250000 -1.05000000
v 1.93240000 2.09750000 -1.06800000
v 1.93240000 2.09750000 -1.05000000
v 2.68760000 2.06250000 -1.06800000
v 2.68760000 2.06250000 -1.05000000
v 2.68760000 2.09750000 -1.06800000
v 2.68760000 2.09750000 -1.05000000
f 866 868 865
f 869 866 865
f 865 868 867
f 867 869 865
f 866 872 868
f 870 866 869
f 870 872 866
f 868 872 867
f 871 869 867
f 867 872 871
f 871 870 869
f 872 870 871

o REAR_RIGHT_ACCESS_DOOR
v 2.98450000 0.90000000 -0.94500000
v 2.98450000 0.90000000 -0.14500000
v 2.98450000 2.93000000 -0.94500000
v 2.98450000 2.93000000 -0.14500000
v 3.01950000 0.90000000 -0.94500000
v 3.01950000 0.90000000 -0.14500000
v 3.01950000 2.93000000 -0.94500000
v 3.01950000 2.93000000 -0.14500000
f 874 876 873
f 877 874 873
f 873 876 875
f 875 877 873
f 874 880 876
f 878 874 877
f 878 880 874
f 876 880 875
f 879 877 875
f 875 880 879
f 879 878 877
f 880 878 879

o REAR_DOOR_FRAME_TOP
v 3.00750000 2.93000000 -0.98500000
v 3.00750000 2.93000000 -0.10500000
v 3.00750000 2.97000000 -0.98500000
v 3.00750000 2.97000000 -0.10500000
v 3.06250000 2.93000000 -0.98500000
v 3.06250000 2.93000000 -0.10500000
v 3.06250000 2.97000000 -0.98500000
v 3.06250000 2.97000000 -0.10500000
f 882 884 881
f 885 882 881
f 881 884 883
f 883 885 881
f 882 888 884
f 886 882 885
f 886 888 882
f 884 888 883
f 887 885 883
f 883 888 887
f 887 886 885
f 888 886 887

o REAR_DOOR_FRAME_BOTTOM
v 3.00750000 0.86000000 -0.98500000
v 3.00750000 0.86000000 -0.10500000
v 3.00750000 0.90000000 -0.98500000
v 3.00750000 0.90000000 -0.10500000
v 3.06250000 0.86000000 -0.98500000
v 3.06250000 0.86000000 -0.10500000
v 3.06250000 0.90000000 -0.98500000
v 3.06250000 0.90000000 -0.10500000
f 890 892 889
f 893 890 889
f 889 892 891
f 891 893 889
f 890 896 892
f 894 890 893
f 894 896 890
f 892 896 891
f 895 893 891
f 891 896 895
f 895 894 893
f 896 894 895

o REAR_DOOR_FRAME_LEFT
v 3.00750000 0.86000000 -0.14500000
v 3.00750000 0.86000000 -0.10500000
v 3.00750000 2.97000000 -0.14500000
v 3.00750000 2.97000000 -0.10500000
v 3.06250000 0.86000000 -0.14500000
v 3.06250000 0.86000000 -0.10500000
v 3.06250000 2.97000000 -0.14500000
v 3.06250000 2.97000000 -0.10500000
f 898 900 897
f 901 898 897
f 897 900 899
f 899 901 897
f 898 904 900
f 902 898 901
f 902 904 898
f 900 904 899
f 903 901 899
f 899 904 903
f 903 902 901
f 904 902 903

o REAR_DOOR_FRAME_RIGHT
v 3.00750000 0.86000000 -0.98500000
v 3.00750000 0.86000000 -0.94500000
v 3.00750000 2.97000000 -0.98500000
v 3.00750000 2.97000000 -0.94500000
v 3.06250000 0.86000000 -0.98500000
v 3.06250000 0.86000000 -0.94500000
v 3.06250000 2.97000000 -0.98500000
v 3.06250000 2.97000000 -0.94500000
f 906 908 905
f 909 906 905
f 905 908 907
f 907 909 905
f 906 912 908
f 910 906 909
f 910 912 906
f 908 912 907
f 911 909 907
f 907 912 911
f 911 910 909
f 912 910 911

o REAR_DOOR_HANDLE
v 3.04000000 1.82500000 -0.79250000
v 3.04000000 1.82500000 -0.75750000
v 3.04000000 2.00500000 -0.79250000
v 3.04000000 2.00500000 -0.75750000
v 3.11000000 1.82500000 -0.79250000
v 3.11000000 1.82500000 -0.75750000
v 3.11000000 2.00500000 -0.79250000
v 3.11000000 2.00500000 -0.75750000
f 914 916 913
f 917 914 913
f 913 916 915
f 915 917 913
f 914 920 916
f 918 914 917
f 918 920 914
f 916 920 915
f 919 917 915
f 915 920 919
f 919 918 917
f 920 918 919

o REAR_DOOR_HINGE_1.27
v 3.04000000 1.20500000 -0.21250000
v 3.04000000 1.20500000 -0.17750000
v 3.04000000 1.32500000 -0.21250000
v 3.04000000 1.32500000 -0.17750000
v 3.11000000 1.20500000 -0.21250000
v 3.11000000 1.20500000 -0.17750000
v 3.11000000 1.32500000 -0.21250000
v 3.11000000 1.32500000 -0.17750000
f 922 924 921
f 925 922 921
f 921 924 923
f 923 925 921
f 922 928 924
f 926 922 925
f 926 928 922
f 924 928 923
f 927 925 923
f 923 928 927
f 927 926 925
f 928 926 927

o REAR_DOOR_HINGE_1.92
v 3.04000000 1.85500000 -0.21250000
v 3.04000000 1.85500000 -0.17750000
v 3.04000000 1.97500000 -0.21250000
v 3.04000000 1.97500000 -0.17750000
v 3.11000000 1.85500000 -0.21250000
v 3.11000000 1.85500000 -0.17750000
v 3.11000000 1.97500000 -0.21250000
v 3.11000000 1.97500000 -0.17750000
f 930 932 929
f 933 930 929
f 929 932 931
f 931 933 929
f 930 936 932
f 934 930 933
f 934 936 930
f 932 936 931
f 935 933 931
f 931 936 935
f 935 934 933
f 936 934 935

o REAR_DOOR_HINGE_2.56
v 3.04000000 2.50500000 -0.21250000
v 3.04000000 2.50500000 -0.17750000
v 3.04000000 2.62500000 -0.21250000
v 3.04000000 2.62500000 -0.17750000
v 3.11000000 2.50500000 -0.21250000
v 3.11000000 2.50500000 -0.17750000
v 3.11000000 2.62500000 -0.21250000
v 3.11000000 2.62500000 -0.17750000
f 938 940 937
f 941 938 937
f 937 940 939
f 939 941 937
f 938 944 940
f 942 938 941
f 942 944 938
f 940 944 939
f 943 941 939
f 939 944 943
f 943 942 941
f 944 942 943

o REAR_TAIL_R
v 3.09000000 0.65000000 -0.88000000
v 3.09000000 0.65000000 -0.64000000
v 3.09000000 0.85000000 -0.88000000
v 3.09000000 0.85000000 -0.64000000
v 3.14000000 0.65000000 -0.88000000
v 3.14000000 0.65000000 -0.64000000
v 3.14000000 0.85000000 -0.88000000
v 3.14000000 0.85000000 -0.64000000
f 946 948 945
f 949 946 945
f 945 948 947
f 947 949 945
f 946 952 948
f 950 946 949
f 950 952 946
f 948 952 947
f 951 949 947
f 947 952 951
f 951 950 949
f 952 950 951

o REAR_SIGNAL_R
v 3.09250000 0.89000000 -0.88000000
v 3.09250000 0.89000000 -0.64000000
v 3.09250000 0.99000000 -0.88000000
v 3.09250000 0.99000000 -0.64000000
v 3.14750000 0.89000000 -0.88000000
v 3.14750000 0.89000000 -0.64000000
v 3.14750000 0.99000000 -0.88000000
v 3.14750000 0.99000000 -0.64000000
f 954 956 953
f 957 954 953
f 953 956 955
f 955 957 953
f 954 960 956
f 958 954 957
f 958 960 954
f 956 960 955
f 959 957 955
f 955 960 959
f 959 958 957
f 960 958 959

o REAR_TAIL_L
v 3.09000000 0.65000000 0.64000000
v 3.09000000 0.65000000 0.88000000
v 3.09000000 0.85000000 0.64000000
v 3.09000000 0.85000000 0.88000000
v 3.14000000 0.65000000 0.64000000
v 3.14000000 0.65000000 0.88000000
v 3.14000000 0.85000000 0.64000000
v 3.14000000 0.85000000 0.88000000
f 962 964 961
f 965 962 961
f 961 964 963
f 963 965 961
f 962 968 964
f 966 962 965
f 966 968 962
f 964 968 963
f 967 965 963
f 963 968 967
f 967 966 965
f 968 966 967

o REAR_SIGNAL_L
v 3.09250000 0.89000000 0.64000000
v 3.09250000 0.89000000 0.88000000
v 3.09250000 0.99000000 0.64000000
v 3.09250000 0.99000000 0.88000000
v 3.14750000 0.89000000 0.64000000
v 3.14750000 0.89000000 0.88000000
v 3.14750000 0.99000000 0.64000000
v 3.14750000 0.99000000 0.88000000
f 970 972 969
f 973 970 969
f 969 972 971
f 971 973 969
f 970 976 972
f 974 970 973
f 974 976 970
f 972 976 971
f 975 973 971
f 971 976 975
f 975 974 973
f 976 974 975

o REAR_PLATE_HOLDER
v 3.09500000 0.60000000 -0.26000000
v 3.09500000 0.60000000 0.26000000
v 3.09500000 0.78000000 -0.26000000
v 3.09500000 0.78000000 0.26000000
v 3.15500000 0.60000000 -0.26000000
v 3.15500000 0.60000000 0.26000000
v 3.15500000 0.78000000 -0.26000000
v 3.15500000 0.78000000 0.26000000
f 978 980 977
f 981 978 977
f 977 980 979
f 979 981 977
f 978 984 980
f 982 978 981
f 982 984 978
f 980 984 979
f 983 981 979
f 979 984 983
f 983 982 981
f 984 982 983

o CAB_LEFT_STEP
v -2.23000000 0.56000000 0.92000000
v -2.23000000 0.56000000 1.14000000
v -2.23000000 0.68000000 0.92000000
v -2.23000000 0.68000000 1.14000000
v -1.61000000 0.56000000 0.92000000
v -1.61000000 0.56000000 1.14000000
v -1.61000000 0.68000000 0.92000000
v -1.61000000 0.68000000 1.14000000
f 986 988 985
f 989 986 985
f 985 988 987
f 987 989 985
f 986 992 988
f 990 986 989
f 990 992 986
f 988 992 987
f 991 989 987
f 987 992 991
f 991 990 989
f 992 990 991

o CAB_RIGHT_STEP
v -2.23000000 0.56000000 -1.14000000
v -2.23000000 0.56000000 -0.92000000
v -2.23000000 0.68000000 -1.14000000
v -2.23000000 0.68000000 -0.92000000
v -1.61000000 0.56000000 -1.14000000
v -1.61000000 0.56000000 -0.92000000
v -1.61000000 0.68000000 -1.14000000
v -1.61000000 0.68000000 -0.92000000
f 994 996 993
f 997 994 993
f 993 996 995
f 995 997 993
f 994 1000 996
f 998 994 997
f 998 1000 994
f 996 1000 995
f 999 997 995
f 995 1000 999
f 999 998 997
f 1000 998 999

o GENERATOR_BOX
v 0.27000000 0.24500000 -0.99000000
v 0.27000000 0.24500000 -0.41000000
v 0.27000000 0.79500000 -0.99000000
v 0.27000000 0.79500000 -0.41000000
v 1.21000000 0.24500000 -0.99000000
v 1.21000000 0.24500000 -0.41000000
v 1.21000000 0.79500000 -0.99000000
v 1.21000000 0.79500000 -0.41000000
f 1002 1004 1001
f 1005 1002 1001
f 1001 1004 1003
f 1003 1005 1001
f 1002 1008 1004
f 1006 1002 1005
f 1006 1008 1002
f 1004 1008 1003
f 1007 1005 1003
f 1003 1008 1007
f 1007 1006 1005
f 1008 1006 1007

o FUEL_BOX
v 0.13000000 0.30000000 0.52000000
v 0.13000000 0.30000000 1.00000000
v 0.13000000 0.72000000 0.52000000
v 0.13000000 0.72000000 1.00000000
v 0.83000000 0.30000000 0.52000000
v 0.83000000 0.30000000 1.00000000
v 0.83000000 0.72000000 0.52000000
v 0.83000000 0.72000000 1.00000000
f 1010 1012 1009
f 1013 1010 1009
f 1009 1012 1011
f 1011 1013 1009
f 1010 1016 1012
f 1014 1010 1013
f 1014 1016 1010
f 1012 1016 1011
f 1015 1013 1011
f 1011 1016 1015
f 1015 1014 1013
f 1016 1014 1015

o BRAND_ACCENT_LEFT
v -2.56000000 1.14250000 0.96400000
v -2.56000000 1.14250000 0.98200000
v -2.56000000 1.17750000 0.96400000
v -2.56000000 1.17750000 0.98200000
v -1.60000000 1.14250000 0.96400000
v -1.60000000 1.14250000 0.98200000
v -1.60000000 1.17750000 0.96400000
v -1.60000000 1.17750000 0.98200000
f 1018 1020 1017
f 1021 1018 1017
f 1017 1020 1019
f 1019 1021 1017
f 1018 1024 1020
f 1022 1018 1021
f 1022 1024 1018
f 1020 1024 1019
f 1023 1021 1019
f 1019 1024 1023
f 1023 1022 1021
f 1024 1022 1023

o BRAND_ACCENT_RIGHT
v -2.56000000 1.14250000 -0.98200000
v -2.56000000 1.14250000 -0.96400000
v -2.56000000 1.17750000 -0.98200000
v -2.56000000 1.17750000 -0.96400000
v -1.60000000 1.14250000 -0.98200000
v -1.60000000 1.14250000 -0.96400000
v -1.60000000 1.17750000 -0.98200000
v -1.60000000 1.17750000 -0.96400000
f 1026 1028 1025
f 1029 1026 1025
f 1025 1028 1027
f 1027 1029 1025
f 1026 1032 1028
f 1030 1026 1029
f 1030 1032 1026
f 1028 1032 1027
f 1031 1029 1027
f 1027 1032 1031
f 1031 1030 1029
f 1032 1030 1031

